<?xml version="1.0" standalone="no"?>
<!DOCTYPE svg PUBLIC "-//W3C//DTD SVG 20010904//EN"
 "http://www.w3.org/TR/2001/REC-SVG-20010904/DTD/svg10.dtd">
<svg version="1.0" xmlns="http://www.w3.org/2000/svg"
 width="297.000000pt" height="278.000000pt" viewBox="0 0 297.000000 278.000000"
 preserveAspectRatio="xMidYMid meet">

<g transform="translate(0.000000,278.000000) scale(0.100000,-0.100000)"
fill="#000000" stroke="none">
<path d="M1385 2634 c-249 -46 -665 -181 -705 -229 -15 -18 -47 -238 -74 -510
l-21 -219 -163 -46 -162 -45 0 -187 0 -188 155 0 155 0 -6 -27 c-9 -48 14
-189 44 -267 77 -196 273 -405 566 -601 128 -85 293 -175 321 -175 23 0 197
98 320 180 323 216 522 443 581 663 8 29 17 91 21 139 l6 88 153 0 154 0 0
188 0 187 -158 44 c-86 24 -162 49 -168 55 -6 6 -16 85 -23 176 -14 185 -46
455 -62 513 -9 34 -17 42 -67 64 -153 68 -598 195 -727 206 -35 4 -93 0 -140
-9z m363 -124 c171 -43 362 -105 449 -146 58 -28 64 -40 82 -159 15 -96 39
-338 46 -465 3 -58 8 -115 11 -127 3 -17 0 -23 -14 -23 -16 0 -19 17 -31 168
-13 186 -46 457 -62 514 -5 21 -17 41 -27 46 -9 4 -73 7 -142 7 -139 -2 -137
-3 -139 72 -1 35 8 31 -190 88 -72 20 -81 19 -81 -7 0 -23 0 -23 -150 -20
-136 3 -150 5 -150 21 0 10 -3 20 -6 23 -6 6 -79 -9 -206 -43 l-78 -21 0 -57
0 -58 -141 2 c-132 1 -142 -1 -154 -20 -20 -32 -62 -356 -81 -617 -6 -81 -10
-98 -23 -98 -15 0 -16 11 -9 108 19 273 63 618 81 640 27 34 210 102 422 157
288 76 344 78 593 15z m-505 -355 c70 -18 191 -78 315 -156 113 -72 565 -390
560 -395 -2 -2 -130 52 -283 120 -433 190 -437 192 -475 176 -42 -18 -64 -65
-89 -194 -12 -59 -21 -109 -21 -112 0 -2 -81 -4 -180 -4 l-180 0 0 26 c0 15 7
74 16 133 28 191 86 323 167 382 22 16 42 27 44 25 2 -2 -7 -21 -22 -41 -14
-21 -25 -41 -25 -45 0 -4 -11 -12 -25 -18 -54 -25 -85 -131 -52 -176 10 -13
11 -36 5 -94 -5 -43 -7 -99 -6 -127 l3 -50 12 55 c7 30 18 86 24 123 10 59 15
69 41 83 60 31 87 122 52 172 -18 26 -14 52 16 100 23 37 26 37 103 17z m489
-416 c178 -78 325 -143 327 -145 2 -2 -172 -4 -387 -4 l-392 0 0 30 c0 17 2
30 5 30 3 0 46 -9 97 -20 50 -12 95 -19 100 -18 5 2 -36 18 -91 36 -56 18
-101 39 -101 45 1 38 15 37 169 -8 85 -25 155 -44 157 -42 2 2 -66 30 -151 62
-118 43 -155 61 -155 74 0 10 3 20 6 23 3 3 105 -27 226 -68 122 -40 223 -72
225 -70 2 1 -92 40 -209 86 -117 46 -215 85 -218 87 -7 7 40 43 56 43 8 0 159
-64 336 -141z m-1232 -259 c0 -17 -7 -20 -40 -20 -38 0 -40 -2 -40 -30 0 -28
3 -30 35 -30 28 0 35 -4 35 -20 0 -16 -7 -20 -35 -20 -31 0 -35 -3 -35 -25 0
-20 -5 -25 -25 -25 -25 0 -25 0 -25 95 l0 95 65 0 c58 0 65 -2 65 -20z m171
10 c21 -12 25 -35 8 -46 -6 -3 -16 -1 -22 5 -20 20 -65 13 -82 -13 -36 -54 14
-111 75 -86 41 17 59 1 29 -26 -13 -12 -35 -19 -61 -19 -73 0 -120 80 -84 144
25 45 92 65 137 41z m169 -70 l0 -80 45 0 c33 0 45 -4 45 -15 0 -12 -14 -15
-65 -15 l-65 0 0 95 c0 88 1 95 20 95 18 0 20 -7 20 -80z m249 66 c54 -28 66
-97 26 -144 -63 -75 -175 -32 -175 66 0 71 80 113 149 78z m231 -4 c20 -16 21
-19 6 -31 -13 -11 -20 -11 -28 -3 -16 16 -61 15 -76 0 -7 -7 -12 -25 -12 -42
0 -55 52 -85 90 -51 15 14 19 14 29 1 17 -21 7 -33 -38 -47 -31 -9 -43 -8 -70
6 -38 19 -64 73 -55 110 16 62 106 96 154 57z m211 -11 c53 -54 35 -138 -36
-161 -58 -19 -118 14 -130 72 -21 94 97 157 166 89z m212 -19 l46 53 1 -97 c0
-91 -1 -98 -20 -98 -17 0 -20 7 -20 48 l-1 47 -26 -33 -26 -33 -34 33 -33 32
0 -47 c0 -40 -3 -47 -20 -47 -19 0 -20 7 -20 97 l0 97 53 -52 54 -53 46 53z
m248 19 c70 -70 1 -189 -95 -165 -35 8 -76 59 -76 92 2 90 108 135 171 73z
m189 9 c0 -15 -7 -20 -25 -20 -24 0 -25 -2 -25 -75 0 -73 -1 -75 -25 -75 -24
0 -25 2 -25 75 0 73 -1 75 -25 75 -18 0 -25 5 -25 20 0 18 7 20 75 20 68 0 75
-2 75 -20z m70 -75 c0 -88 -1 -95 -20 -95 -19 0 -20 7 -20 95 0 88 1 95 20 95
19 0 20 -7 20 -95z m92 40 l25 -54 22 54 c16 39 28 55 42 55 10 0 19 -1 19 -3
0 -9 -73 -173 -81 -181 -7 -8 -89 153 -89 175 0 5 8 9 19 9 12 0 26 -17 43
-55z m258 35 c0 -17 -7 -20 -40 -20 -38 0 -40 -2 -40 -30 0 -28 3 -30 35 -30
24 0 35 -5 35 -15 0 -10 -11 -15 -35 -15 -24 0 -35 -5 -35 -15 0 -11 12 -15
45 -15 33 0 45 -4 45 -15 0 -12 -14 -15 -65 -15 l-65 0 0 95 0 95 60 0 c53 0
60 -2 60 -20z m-1937 -342 c11 -156 83 -293 237 -452 136 -141 343 -291 529
-385 l62 -32 97 52 c129 69 308 191 410 281 202 177 305 349 319 531 4 55 10
77 19 77 34 0 9 -179 -41 -287 -98 -215 -365 -457 -711 -643 l-94 -52 -103 57
c-473 264 -736 557 -754 843 -5 68 -3 82 9 82 12 0 16 -17 21 -72z m660 -25
c-20 -4 -23 -11 -25 -56 l-2 -52 -3 52 c-3 38 -8 53 -21 56 -9 3 3 5 28 4 25
0 35 -2 23 -4z m99 -38 c11 -53 5 -65 -37 -65 l-35 0 0 56 0 55 32 -3 c29 -3
33 -7 40 -43z m48 -4 c0 -28 -4 -53 -10 -56 -6 -4 -10 15 -10 49 0 31 5 56 10
56 6 0 10 -22 10 -49z m40 0 c0 -46 2 -50 28 -54 22 -3 20 -4 -10 -6 l-38 -1
0 55 c0 30 5 55 10 55 6 0 10 -22 10 -49z m77 -33 c-2 -18 -4 -6 -4 27 0 33 2
48 4 33 2 -15 2 -42 0 -60z m83 73 c0 -5 -9 -7 -20 -4 -30 8 -25 -21 6 -35 37
-18 30 -57 -10 -57 -17 0 -31 6 -34 15 -5 13 -3 13 11 1 18 -14 47 -9 47 9 0
6 -11 16 -25 22 -16 7 -25 19 -25 35 0 18 5 23 25 23 14 0 25 -4 25 -9z m50
-46 c0 -30 -4 -55 -10 -55 -5 0 -10 25 -10 55 0 30 5 55 10 55 6 0 10 -25 10
-55z m-171 -160 c42 -21 66 -78 52 -125 -17 -57 -53 -85 -111 -85 -40 0 -54 5
-79 29 -99 95 15 245 138 181z m36 -315 c-3 -6 1 -17 9 -25 8 -9 13 -22 10
-30 -8 -20 -43 -19 -51 1 -6 17 15 64 29 64 5 0 6 -5 3 -10z m-185 -35 c0 -19
-2 -35 -4 -35 -2 0 -6 16 -8 35 -2 19 0 35 4 35 4 0 8 -16 8 -35z m70 20 c10
-12 9 -20 -4 -40 -15 -23 -35 -37 -22 -16 3 5 -1 11 -9 15 -15 5 -21 37 -8 49
11 11 30 8 43 -8z m59 3 c-1 -7 2 -22 6 -32 10 -22 -18 -48 -41 -39 -21 8 -17
22 5 16 23 -6 38 15 17 23 -9 3 -13 11 -10 16 4 6 0 14 -7 19 -10 6 -8 9 9 9
13 0 22 -6 21 -12z"/>
<path d="M994 1435 c-21 -32 -11 -72 21 -87 55 -25 104 37 70 88 -21 33 -69
33 -91 -1z"/>
<path d="M1422 1448 c-17 -17 -15 -74 4 -92 35 -35 94 -4 94 50 0 43 -68 72
-98 42z"/>
<path d="M1875 1436 c-34 -51 15 -113 70 -88 54 25 35 112 -25 112 -20 0 -35
-8 -45 -24z"/>
<path d="M1370 1096 c0 -10 9 -16 21 -16 24 0 21 23 -4 28 -10 2 -17 -3 -17
-12z"/>
<path d="M1370 1040 c0 -23 22 -27 39 -7 13 16 5 27 -21 27 -11 0 -18 -7 -18
-20z"/>
<path d="M1439 900 c-8 -5 -5 -10 9 -14 11 -4 32 -18 46 -33 15 -15 32 -23 41
-19 22 8 19 22 -11 45 -15 12 -22 21 -16 21 6 0 24 -11 39 -25 28 -25 28 -25
8 -41 -11 -9 -35 -22 -52 -30 -22 -9 -33 -21 -33 -34 0 -19 1 -20 37 -5 21 9
46 23 57 33 15 14 18 14 14 2 -2 -8 -28 -26 -56 -40 -28 -14 -52 -29 -52 -34
0 -9 43 -4 74 9 15 7 17 5 11 -6 -5 -8 -5 -11 1 -6 5 5 9 12 9 15 1 4 9 22 18
40 11 19 13 32 7 32 -6 0 -9 8 -6 18 3 10 -4 29 -18 46 -19 25 -31 30 -69 31
-25 1 -51 -1 -58 -5z"/>
<path d="M1406 871 c-4 -6 -2 -11 4 -11 7 0 24 -13 39 -28 18 -20 32 -27 45
-22 17 6 17 8 -5 33 -26 29 -73 45 -83 28z"/>
<path d="M1384 826 c-3 -13 1 -40 10 -60 19 -45 28 -47 15 -3 -5 17 -7 44 -3
60 7 33 -13 37 -22 3z"/>
<path d="M1417 821 c-8 -30 9 -94 29 -108 23 -17 27 -11 14 21 -5 15 -8 37 -4
50 3 14 -1 28 -14 39 -19 17 -20 17 -25 -2z"/>
<path d="M1505 710 c-13 -6 -15 -9 -5 -9 8 0 22 4 30 9 18 12 2 12 -25 0z"/>
<path d="M1560 545 c0 -8 7 -15 15 -15 8 0 15 7 15 15 0 8 -7 15 -15 15 -8 0
-15 -7 -15 -15z"/>
<path d="M1435 570 c-4 -6 -3 -16 3 -22 6 -6 12 -6 17 2 4 6 3 16 -3 22 -6 6
-12 6 -17 -2z"/>
</g>
</svg>
